PathFileType	4	(X/Y/Z)	T00_Trial_0-99.trc
DataRate	CameraRate	NumFrames	NumMarkers	Units	OrigDataRate	OrigDataStartFrame	OrigNumFrames
60	60	9	22	m	60	61	99
Frame#	Time	Hip			RHip			RKnee			RAnkle			RBigToe			RSmallToe			RHeel			LHip			LKnee			LAnkle			LBigToe			LSmallToe			LHeel			Neck			Head			Nose			RShoulder			RElbow			RWrist			LShoulder			LElbow			LWrist		
		X1	Y1	Z1	X2	Y2	Z2	X3	Y3	Z3	X4	Y4	Z4	X5	Y5	Z5	X6	Y6	Z6	X7	Y7	Z7	X8	Y8	Z8	X9	Y9	Z9	X10	Y10	Z10	X11	Y11	Z11	X12	Y12	Z12	X13	Y13	Z13	X14	Y14	Z14	X15	Y15	Z15	X16	Y16	Z16	X17	Y17	Z17	X18	Y18	Z18	X19	Y19	Z19	X20	Y20	Z20	X21	Y21	Z21	X22	Y22	Z22
61	1.0166666666666666	-0.1487667949359743	0.9691069184101001	-1.0794954291898538	-0.07053637424450625	0.9347695164205706	-0.780280079916591	-0.2281814419990368	0.5113663077561668	-1.2339067746042602	-0.5135996119522005	0.29454753749500107	-0.8174980068704825	-0.5053792954115517	0.24151622940050765	-0.6541939818685585	-0.5555270678821925	0.25559420856872883	-0.693416474636715	-0.5176190788689841	0.24270247920205862	-0.8351475168529702	-0.059017360531725696	0.9054726589385504	-1.0682012514033368	-0.0696061712296683	0.49633712422966136	-0.9913349608483115	-0.023627536936896683	0.14530658713688507	-1.1524029722035343	-0.003388439175614757	0.08123244340407507	-0.9908124496201786	0.02275917544186926	0.07375399561221191	-1.0387475223178846	-0.013505246624241126	0.09728173300437909	-1.2081083694306074	0.2288596490420184	1.3430996878817185	-0.902342996906672	0.07163019569060088	1.6941982299334555	-1.1613331890414365	0.02348211036536426	1.52661145795419	-1.109965357396479	0.03934939571273929	1.4322089242409137	-0.9375900869619808	-0.21478102563050328	1.4838579418600677	-0.9002009880440356	-0.08908780777404778	1.592610074651585	-0.729537228991676	0.30834244993625315	1.1915039244310988	-1.010459562706706	0.3751987091204904	0.9059689915833342	-1.031774882601881	0.4152920444809839	0.6647724014640978	-0.9561940271967498
62	1.0333333333333334	-0.14739298716683033	0.9700246305677348	-1.074042640202262	-0.07053637431668462	0.9347695165088297	-0.7802800802203259	-0.23426400067542463	0.5186997386441513	-1.2016351609330136	-0.47062157548591854	0.27851344679665424	-0.8030560504340495	-0.4532337113168675	0.22983590597448275	-0.6448745628152647	-0.5069552973626166	0.24482221612509475	-0.6830108596723244	-0.4734154604726296	0.22702347369668158	-0.8169725950489197	-0.059075051694641466	0.9065865223895382	-1.0625112025671783	-0.06751955035873929	0.4957622440253986	-0.9903373927285872	-0.02377585042442257	0.14478591336566196	-1.151318693029047	-0.001828244922071215	0.08329520678599597	-0.9954486229942661	0.024170200686300942	0.07447938616416114	-1.0405463552690646	-0.01482002599489956	0.09754268924135644	-1.2053597496429322	0.22286197708924438	1.3470484349801073	-0.8945962482209279	0.07162991889738471	1.6941981096811556	-1.1613320744656155	0.02348198569427804	1.5266113953616167	-1.1099647236753822	0.031098151790320036	1.4349455325120648	-0.9283659392119222	-0.2235112482852359	1.477459427783675	-0.8904521796536327	-0.10291747992819171	1.5843084352685965	-0.7163073220660879	0.3050655447972542	1.1973577105155018	-1.0028928200679301	0.3741742844066314	0.9117191853242416	-1.0266348876272782	0.4157668948173651	0.6694189631338976	-0.9488054445829424
63	1.05	-0.14551285057122856	0.9700701583187904	-1.0686651139931602	-0.07053637445731895	0.934769516680796	-0.7802800808121313	-0.24347148725805073	0.53048683925541	-1.1429438537665946	-0.4282969514293887	0.2660907830235268	-0.7893839918060956	-0.40225800366583614	0.21915859388371456	-0.6346593756679025	-0.4584741910237555	0.233511045215807	-0.6704224104433776	-0.4310518844052362	0.2157041477875998	-0.8009156060055198	-0.05850627761076359	0.9069788637884838	-1.0568495955912234	-0.06475699609076405	0.4938429725776435	-0.9891794301419644	-0.023531473385081946	0.14423594895731062	-1.1504798364541584	0.0003233001271658997	0.08338339380350304	-0.9998617295956116	0.026264548918262978	0.0732213719515582	-1.0418046198010849	-0.016044877422876476	0.09775616427245276	-1.2032772193157188	0.21693534244114912	1.3513368111665758	-0.8874232454508205	0.07162984387827771	1.694198079820899	-1.1613320841703565	0.023481780457799806	1.5266112927140683	-1.109963696505442	0.022594048361605317	1.4366935221297912	-0.9188084683613826	-0.2327557908165739	1.4710196035330787	-0.8805611356975956	-0.1168448520089578	1.5758610943917486	-0.7038116393773283	0.301794412637956	1.203347723705586	-0.9954911833183251	0.3725329474483311	0.9181997782340339	-1.0215234496863783	0.4155781396621212	0.6740714774256042	-0.9406737845944769
64	1.0666666666666669	-0.14338280542652815	0.969359967941387	-1.0633918573089662	-0.07053637467186247	0.9347695169431378	-0.7802800817149551	-0.2542306969975731	0.5453583788060764	-1.058614223612555	-0.38810902531006614	0.2571807375074809	-0.7778624397092332	-0.35344038857845783	0.2097377831355116	-0.6235447309445225	-0.41091802739177835	0.2209259355031243	-0.6542297217549399	-0.3920022659440683	0.20902426545011327	-0.7895677926366795	-0.05738529503184459	0.906827261903466	-1.0514038644476886	-0.06167586385996676	0.49150578976470505	-0.9876592578359025	-0.02327899330486205	0.14379485427515834	-1.1500014333919533	0.003009520698652389	0.08159124520698594	-1.0028485462590568	0.028983122265102985	0.07017978950870868	-1.042051588282813	-0.017473031937400907	0.09817991320822385	-1.2019799378466547	0.2110732869045677	1.3557038432971924	-0.8808114436416297	0.07163030668598092	1.694198288450745	-1.161334811069465	0.023481514203764844	1.5266111601285712	-1.1099623876098836	0.01396666912685869	1.4374644724842414	-0.9087892044973868	-0.2419238499297105	1.4647202420629546	-0.8716333138654477	-0.13031577871796093	1.5675622587956415	-0.693010320645054	0.29840752209211385	1.209410876876974	-0.9882738288465365	0.3706476966702649	0.9253258792611346	-1.0165427042937025	0.4150521988008216	0.6792307637292729	-0.9319983458748834
65	1.0833333333333333	-0.14124722940960044	0.9681922310881456	-1.0583230728736674	-0.070536374925216	0.9347695172529362	-0.7802800827810958	-0.26266396659795516	0.5591706702093288	-0.9626084581644682	-0.3508617152166976	0.25051553031178614	-0.7696010986709203	-0.3078837140276425	0.20126918093364402	-0.6131692914431035	-0.36562391317081544	0.20705048499625214	-0.6356574356135414	-0.35656987760216846	0.20553873361342256	-0.7840553566806339	-0.055902894451540744	0.9062316680941617	-1.0459293303308732	-0.05854620893127922	0.4895829297885672	-0.985559342560334	-0.023394086909705673	0.14366214118226248	-1.1497098117697782	0.005860945326975554	0.07855190780045279	-1.003491495751311	0.03189803160668548	0.06594968372510451	-1.0409472946727374	-0.019515700231856434	0.09911513055766442	-1.2010385209957417	0.2051048589024846	1.3600447973563583	-0.8746123299608572	0.07163176985731783	1.6941989384486027	-1.1613423379000105	0.02348127416954037	1.526611041681641	-1.109961251780155	0.0051126771249462005	1.4375280637133845	-0.8983343522442555	-0.2507117946211778	1.4586899297621476	-0.8643328490277822	-0.14345161522332797	1.55968745543684	-0.683977070084612	0.29470846059279143	1.2156448437876584	-0.9812193618899362	0.3688556579577682	0.9330122853580576	-1.0116933971365072	0.41462660232558307	0.6853407674649352	-0.9228428545028178
66	1.1	-0.1393380321899949	0.9669085091127573	-1.0537778824424016	-0.07053637510698522	0.934769517475202	-0.7802800835460016	-0.2645055945336672	0.5671916800055016	-0.8766335839185421	-0.31657300134249533	0.24423147820328892	-0.764435254267164	-0.2666425715770619	0.1925638402797744	-0.605205421307341	-0.32400127092959513	0.19194587922240938	-0.6172711953972905	-0.3240048469463222	0.202664728404194	-0.783097048024016	-0.054207495383116186	0.9051998109076327	-1.0399437983818995	-0.05553369315084501	0.48831819286609845	-0.9827036592775834	-0.024097213724539834	0.14398259528189974	-1.1495079083505721	0.008439353279952265	0.07511101426465348	-1.0017046050822502	0.03441996096350808	0.06139083941620518	-1.0386508281442295	-0.022383545645305883	0.10067412224650191	-1.19994185933177	0.19875748125986614	1.3643601118762858	-0.8685035413315474	0.07163470000305565	1.6942002327871961	-1.1613565726348178	0.023481254546931174	1.5266110349058573	-1.10996127761378	-0.004033502871992791	1.437287309652382	-0.88780270398172	-0.25928326161889914	1.4529758942492097	-0.8585577333720845	-0.15672593724490544	1.5523879443631208	-0.6758537064628998	0.2904894059697224	1.2222422342891515	-0.9742825217982857	0.36737402050868306	0.9411538278630383	-1.006775924734384	0.4147160923271417	0.6926018365975699	-0.9132524552316396
67	1.1166666666666667	-0.13784909732729314	0.9657943274553412	-1.050174948594219	-0.070536374996533	0.934769517340142	-0.780280083081206	-0.25819400257149533	0.5677597957604482	-0.8157599799740882	-0.28481354587044005	0.23676169802926872	-0.76059752447557	-0.23023416548668427	0.18222133786439024	-0.5994867063476925	-0.2868837251577054	0.17567583203405163	-0.600923649874442	-0.29319050944616865	0.19777803895211835	-0.7834975743623674	-0.05226771643398123	0.903734515505074	-1.033040211132106	-0.052694223802033806	0.4874723016175022	-0.9791677148680648	-0.025435649441038356	0.144771011736887	-1.149494374947487	0.010430416293566313	0.07195792621982004	-0.9982677336955388	0.03613521981040782	0.057286312392485786	-1.0358362478723617	-0.025893645121277703	0.10276270679598373	-1.198618435579973	0.1918144271383399	1.3686528550672594	-0.862167171551904	0.07163926861014572	1.6942022419991503	-1.1613777527699696	0.023481781691382424	1.5266113030790345	-1.1099641006574545	-0.013258247082425328	1.4371130115294877	-0.8778008029598383	-0.2680741904495134	1.4474848738245099	-0.8535227100630375	-0.17058002403611242	1.5455488798136492	-0.6673472826132827	0.2856217192600696	1.2293373930619726	-0.9673416835499841	0.3662712951971909	0.9496272645720182	-1.0014838757421294	0.4155822100317001	0.7010350383903307	-0.9034351477538969
68	1.1333333333333333	-0.13689080475206322	0.9650181474495191	-1.047796087945894	-0.07053637425037801	0.9347695164277504	-0.7802800799413001	-0.24543484220558182	0.5627986026955609	-0.7816728713840094	-0.2550090653467286	0.2272186231161608	-0.7559039314627498	-0.19828924456275812	0.16948398123518424	-0.5939812827269799	-0.2542148979985483	0.15846957082163732	-0.586902989565491	-0.263164430799526	0.18914748401645748	-0.7820803421254815	-0.04981484888214114	0.901962266737513	-1.0251714414113726	-0.04993921116708609	0.4865897947956643	-0.9753477866616067	-0.0272988718924044	0.14597400624952975	-1.1497658134940498	0.011668868407717695	0.06953324514759501	-0.9943671766162826	0.03697356063963941	0.05400820569357355	-1.0333135697013742	-0.029537441701944625	0.10519469392552144	-1.1974707739314787	0.18412645395829197	1.3730116972547302	-0.8553933961025758	0.07164482014683497	1.6942046696822863	-1.1614019138842857	0.02348328880399696	1.526612062021047	-1.1099718546249775	-0.02228319350387787	1.4372245658881573	-0.8689072081263536	-0.2774576728316001	1.4419704757765077	-0.8482918846854922	-0.18511276151516037	1.5388778412336588	-0.657486441903988	0.2801092123619687	1.2370352724374638	-0.960132397147497	0.3654545549493507	0.9584601733430038	-0.9956500992363428	0.4172264636050965	0.7106365088258662	-0.8937448989466252
69	1.15	-0.13647515607111513	0.9646206942614817	-1.0466627252989413	-0.07053637245196355	0.9347695142286654	-0.7802800723733655	-0.22923394462851537	0.5551966246415803	-0.7675379739462624	-0.22654586171038685	0.2152771928422768	-0.7492831659048299	-0.1698684108468379	0.15453578671605012	-0.5865862798319957	-0.22529265800483153	0.14068020114211596	-0.574558528297517	-0.2333220059153199	0.17626933986309848	-0.7773722391208012	-0.04646851381130556	0.9001853241021199	-1.016642544379424	-0.04705482842021364	0.4852684312654155	-0.9716378933583545	-0.029386351581012223	0.1475207605239026	-1.1502603204570634	0.012146584479042941	0.06800206329052215	-0.9910872936116759	0.03718103360126203	0.05152572346610252	-1.031662700909053	-0.03271759250408462	0.10773129902754207	-1.1969576600934115	0.17556895787888363	1.3777075656582156	-0.8480553028777383	0.0716491241300981	1.6942065242839286	-1.1614175038127175	0.023486184761542878	1.5266135137662316	-1.1099864853580477	-0.031120896176383195	1.4376462609178808	-0.8613952568397547	-0.2875097097472406	1.4360467209218852	-0.8422744269717672	-0.2002042787423063	1.5320403328489995	-0.6459343292643398	0.27402894606692574	1.2454685114490205	-0.9523531176574238	0.36478337519005827	0.9679213870238852	-0.9894028613968777	0.41938880674926904	0.7214025427087196	-0.884511007341969
